<svg width="34" height="34" viewBox="0 0 34 34" fill="none" xmlns="http://www.w3.org/2000/svg">
<rect width="34" height="34" rx="17" fill="#4198C5"/>
<path fill-rule="evenodd" clip-rule="evenodd" d="M16.9265 15.5152L20.4821 11.9596C20.8624 11.5794 21.4789 11.5794 21.8592 11.9596C22.2395 12.3399 22.2395 12.9565 21.8592 13.3368L18.3037 16.8923L21.8389 20.4276C22.2343 20.823 22.2343 21.4641 21.8389 21.8595C21.4435 22.2549 20.8025 22.2549 20.4071 21.8595L16.8718 18.3242L13.3369 21.8591C12.9566 22.2394 12.34 22.2394 11.9597 21.8591C11.5794 21.4789 11.5794 20.8623 11.9597 20.482L15.4947 16.9471L11.9394 13.3918C11.544 12.9964 11.544 12.3554 11.9394 11.96C12.3348 11.5646 12.9759 11.5646 13.3713 11.96L16.9265 15.5152Z" fill="white"/>
</svg>
