<svg width="34" height="34" viewBox="0 0 34 34" fill="none" xmlns="http://www.w3.org/2000/svg">
<circle cx="17" cy="17" r="17" fill="#4198C5"/>
<path fill-rule="evenodd" clip-rule="evenodd" d="M15.6646 11C15.2503 11 14.9146 11.3358 14.9146 11.75C14.9146 12.1642 15.2503 12.5 15.6646 12.5H24.1646C24.5788 12.5 24.9146 12.1642 24.9146 11.75C24.9146 11.3358 24.5788 11 24.1646 11H15.6646ZM17.6646 16.4532C17.2503 16.4532 16.9146 16.789 16.9146 17.2032C16.9146 17.6174 17.2503 17.9532 17.6646 17.9532H24.1646C24.5788 17.9532 24.9146 17.6174 24.9146 17.2032C24.9146 16.789 24.5788 16.4532 24.1646 16.4532H17.6646ZM18.9146 22.75C18.9146 22.3358 19.2503 22 19.6646 22H24.1646C24.5788 22 24.9146 22.3358 24.9146 22.75C24.9146 23.1642 24.5788 23.5 24.1646 23.5H19.6646C19.2503 23.5 18.9146 23.1642 18.9146 22.75ZM13.8947 21.2356C14.0351 21.3625 14.0351 21.5666 13.8947 21.6892L11.7482 23.5335C11.6129 23.6604 11.3871 23.6604 11.2515 23.5335L9.10528 21.6892C8.96491 21.5668 8.96491 21.3625 9.10528 21.2356C9.24058 21.113 9.46662 21.113 9.60699 21.2356L11.1462 22.5355L11.1437 11.6258C11.1437 11.4489 11.3043 11.3083 11.5 11.3083C11.6957 11.3083 11.8512 11.4489 11.8515 11.6258L11.8541 22.5355L13.3981 21.2356C13.5334 21.113 13.7591 21.113 13.8947 21.2356Z" fill="white"/>
<path d="M13.8947 21.6892L14.0577 21.8788L14.0592 21.8775L13.8947 21.6892ZM13.8947 21.2356L14.0624 21.0501H14.0624L13.8947 21.2356ZM11.7482 23.5335L11.5851 23.3437L11.5772 23.3511L11.7482 23.5335ZM11.2515 23.5335L11.4225 23.3508L11.4144 23.3439L11.2515 23.5335ZM9.10528 21.6892L8.94102 21.8776L8.94234 21.8788L9.10528 21.6892ZM9.10528 21.2356L9.27293 21.421L9.27314 21.4209L9.10528 21.2356ZM9.60699 21.2356L9.4425 21.4239L9.44569 21.4266L9.60699 21.2356ZM11.1462 22.5355L10.9849 22.7265L11.3964 23.0739L11.3962 22.5354L11.1462 22.5355ZM11.1437 11.6258H10.8937V11.6259L11.1437 11.6258ZM11.8515 11.6258L12.1015 11.6258L12.1015 11.6254L11.8515 11.6258ZM11.8541 22.5355L11.6041 22.5355L11.6042 23.0726L12.0151 22.7267L11.8541 22.5355ZM13.3981 21.2356L13.5592 21.427L13.5659 21.4209L13.3981 21.2356ZM15.1646 11.75C15.1646 11.4739 15.3884 11.25 15.6646 11.25V10.75C15.1123 10.75 14.6646 11.1977 14.6646 11.75H15.1646ZM15.6646 12.25C15.3884 12.25 15.1646 12.0261 15.1646 11.75H14.6646C14.6646 12.3023 15.1123 12.75 15.6646 12.75V12.25ZM24.1646 12.25H15.6646V12.75H24.1646V12.25ZM24.6646 11.75C24.6646 12.0261 24.4407 12.25 24.1646 12.25V12.75C24.7168 12.75 25.1646 12.3023 25.1646 11.75H24.6646ZM24.1646 11.25C24.4407 11.25 24.6646 11.4739 24.6646 11.75H25.1646C25.1646 11.1977 24.7168 10.75 24.1646 10.75V11.25ZM15.6646 11.25H24.1646V10.75H15.6646V11.25ZM17.1646 17.2032C17.1646 16.9271 17.3884 16.7032 17.6646 16.7032V16.2032C17.1123 16.2032 16.6646 16.6509 16.6646 17.2032H17.1646ZM17.6646 17.7032C17.3884 17.7032 17.1646 17.4794 17.1646 17.2032H16.6646C16.6646 17.7555 17.1123 18.2032 17.6646 18.2032V17.7032ZM24.1646 17.7032H17.6646V18.2032H24.1646V17.7032ZM24.6646 17.2032C24.6646 17.4794 24.4407 17.7032 24.1646 17.7032V18.2032C24.7168 18.2032 25.1646 17.7555 25.1646 17.2032H24.6646ZM24.1646 16.7032C24.4407 16.7032 24.6646 16.9271 24.6646 17.2032H25.1646C25.1646 16.6509 24.7168 16.2032 24.1646 16.2032V16.7032ZM17.6646 16.7032H24.1646V16.2032H17.6646V16.7032ZM19.6646 21.75C19.1123 21.75 18.6646 22.1977 18.6646 22.75H19.1646C19.1646 22.4739 19.3884 22.25 19.6646 22.25V21.75ZM24.1646 21.75H19.6646V22.25H24.1646V21.75ZM25.1646 22.75C25.1646 22.1977 24.7168 21.75 24.1646 21.75V22.25C24.4407 22.25 24.6646 22.4739 24.6646 22.75H25.1646ZM24.1646 23.75C24.7168 23.75 25.1646 23.3023 25.1646 22.75H24.6646C24.6646 23.0261 24.4407 23.25 24.1646 23.25V23.75ZM19.6646 23.75H24.1646V23.25H19.6646V23.75ZM18.6646 22.75C18.6646 23.3023 19.1123 23.75 19.6646 23.75V23.25C19.3884 23.25 19.1646 23.0261 19.1646 22.75H18.6646ZM14.0592 21.8775C14.3155 21.6535 14.3106 21.2746 14.0624 21.0501L13.7271 21.421C13.7464 21.4386 13.75 21.4546 13.75 21.464C13.75 21.4731 13.7468 21.4864 13.7303 21.5009L14.0592 21.8775ZM11.9111 23.7231L14.0576 21.8788L13.7318 21.4995L11.5852 23.3439L11.9111 23.7231ZM11.0807 23.7161C11.3123 23.9328 11.6876 23.9331 11.9192 23.7159L11.5772 23.3511C11.5381 23.3877 11.4619 23.388 11.4223 23.351L11.0807 23.7161ZM8.94234 21.8788L11.0886 23.7231L11.4144 23.3439L9.26821 21.4996L8.94234 21.8788ZM8.93762 21.0501C8.68952 21.2744 8.68427 21.6539 8.94103 21.8776L9.26952 21.5007C9.25322 21.4865 9.25 21.4733 9.25 21.4641C9.25 21.4546 9.25362 21.4385 9.27293 21.421L8.93762 21.0501ZM9.77146 21.0473C9.53866 20.844 9.16969 20.8399 8.93741 21.0503L9.27314 21.4209C9.31148 21.3861 9.39459 21.382 9.44253 21.4239L9.77146 21.0473ZM11.3075 22.3445L9.76829 21.0446L9.44569 21.4266L10.9849 22.7265L11.3075 22.3445ZM10.8937 11.6259L10.8962 22.5355L11.3962 22.5354L11.3937 11.6258L10.8937 11.6259ZM11.5 11.0583C11.1954 11.0583 10.8937 11.2833 10.8937 11.6258H11.3937C11.3937 11.6165 11.3972 11.6029 11.4143 11.5878C11.4321 11.5721 11.4617 11.5583 11.5 11.5583V11.0583ZM12.1015 11.6254C12.1009 11.2877 11.8096 11.0583 11.5 11.0583V11.5583C11.5378 11.5583 11.5654 11.5717 11.5814 11.5862C11.5969 11.6002 11.6015 11.6141 11.6015 11.6263L12.1015 11.6254ZM12.1041 22.5354L12.1015 11.6258L11.6015 11.6259L11.6041 22.5355L12.1041 22.5354ZM13.2371 21.0444L11.6931 22.3442L12.0151 22.7267L13.5591 21.4268L13.2371 21.0444ZM14.0624 21.0501C13.8317 20.8416 13.4609 20.8413 13.2302 21.0503L13.5659 21.4209C13.6059 21.3847 13.6865 21.3844 13.7271 21.421L14.0624 21.0501Z" fill="white"/>
</svg>
