<svg width="34" height="34" viewBox="0 0 34 34" fill="none" xmlns="http://www.w3.org/2000/svg">
<rect width="34" height="34" rx="17" fill="#4198C5"/>
<g clip-path="url(#clip0_3_8833)">
<path fill-rule="evenodd" clip-rule="evenodd" d="M22.2641 20.8262L24.7871 23.3492C25.071 23.633 25.071 24.0918 24.7872 24.3756C24.6456 24.5171 24.4598 24.5883 24.274 24.5883C24.0881 24.5883 23.9023 24.5171 23.7608 24.3756L21.2378 21.8525L22.2641 20.8262ZM21.311 19.7438C22.2361 18.5698 22.7909 17.0912 22.7909 15.4838C22.7909 11.6818 19.6974 8.58826 15.8954 8.58826C12.0935 8.58826 9 11.6818 9 15.4838C9 19.2858 12.0935 22.3793 15.8955 22.3793C17.4143 22.3793 18.8181 21.884 19.9586 21.0489L19.9576 21.0479C19.9576 21.0479 20.4889 20.6135 20.7818 20.3206C21.0522 20.0502 21.278 19.7832 21.311 19.7438ZM10.4517 15.4838C10.4517 18.4859 12.8934 20.9276 15.8955 20.9276C18.8975 20.9276 21.3393 18.4859 21.3393 15.4838C21.3393 12.4817 18.8975 10.0399 15.8955 10.0399C12.8934 10.0399 10.4517 12.4817 10.4517 15.4838Z" fill="white"/>
</g>
<defs>
<clipPath id="clip0_3_8833">
<rect width="16" height="16" fill="white" transform="translate(9 8.58826)"/>
</clipPath>
</defs>
</svg>
